<svg width="74" height="15" viewBox="0 0 74 15" fill="none" xmlns="http://www.w3.org/2000/svg">
<path d="M2.04688 0.75C2.48438 0.75 2.85938 0.898438 3.17188 1.19531C3.48438 1.47656 3.64844 1.83594 3.66406 2.27344V7.92188C3.64844 8.5625 3.6875 9.15625 3.78125 9.70312C3.89062 10.2344 4.14062 10.7109 4.53125 11.1328C4.92188 11.5547 5.41406 11.7812 6.00781 11.8125H13.5078C13.9453 11.8281 14.3047 11.9922 14.5859 12.3047C14.8828 12.6172 15.0312 12.9922 15.0312 13.4297C15.0156 13.8516 14.8594 14.2109 14.5625 14.5078C14.2812 14.7891 13.9297 14.9375 13.5078 14.9531H5.21094C4.11719 14.8906 3.21094 14.5234 2.49219 13.8516C1.78906 13.1641 1.28125 12.3281 0.96875 11.3438C0.671875 10.3594 0.515625 9.3125 0.5 8.20312V2.27344C0.515625 1.85156 0.671875 1.5 0.96875 1.21875C1.26562 0.921875 1.625 0.765625 2.04688 0.75ZM29.8438 1.125C30.6406 1.14062 31.3516 1.39063 31.9766 1.875C32.6016 2.35938 33.1016 2.9375 33.4766 3.60938C33.8672 4.28125 34.1562 4.99219 34.3438 5.74219C34.5312 6.49219 34.625 7.25781 34.625 8.03906C34.625 9.07031 34.4609 10.0859 34.1328 11.0859C33.8203 12.0703 33.2969 12.9453 32.5625 13.7109C31.8438 14.4766 30.9375 14.8906 29.8438 14.9531H21.6641C20.5703 14.9062 19.6562 14.5 18.9219 13.7344C18.1875 12.9688 17.6641 12.0859 17.3516 11.0859C17.0547 10.0859 16.9062 9.07031 16.9062 8.03906C16.9062 7.00781 17.0625 6 17.375 5.01562C17.6875 4.01562 18.2031 3.13281 18.9219 2.36719C19.6562 1.58594 20.5703 1.17188 21.6641 1.125H22.1094H29.3984H29.8438ZM29.0469 11.8125C29.6406 11.7812 30.1328 11.5625 30.5234 11.1562C30.9297 10.7344 31.2188 10.25 31.3906 9.70312C31.5625 9.15625 31.6484 8.60156 31.6484 8.03906C31.6484 7.47656 31.5547 6.92969 31.3672 6.39844C31.1953 5.85156 30.9141 5.36719 30.5234 4.94531C30.1328 4.52344 29.6406 4.29688 29.0469 4.26562H22.3906C21.7969 4.29688 21.3047 4.52344 20.9141 4.94531C20.5234 5.36719 20.2344 5.85156 20.0469 6.39844C19.875 6.92969 19.7891 7.47656 19.7891 8.03906C19.7891 8.60156 19.875 9.15625 20.0469 9.70312C20.2188 10.25 20.5 10.7344 20.8906 11.1562C21.2969 11.5625 21.7969 11.7812 22.3906 11.8125H29.0469ZM41.6328 1.125H51.5234C51.9609 1.14062 52.3203 1.30469 52.6016 1.61719C52.8984 1.92969 53.0469 2.30469 53.0469 2.74219C52.9688 3.67969 52.4609 4.1875 51.5234 4.26562H42.4297C41.8359 4.29688 41.3438 4.52344 40.9531 4.94531C40.5625 5.36719 40.2734 5.85156 40.0859 6.39844C39.9141 6.92969 39.8281 7.47656 39.8281 8.03906C39.8281 8.60156 39.9141 9.15625 40.0859 9.70312C40.2734 10.2344 40.5625 10.7109 40.9531 11.1328C41.3438 11.5547 41.8359 11.7812 42.4297 11.8125H49.5547C49.8359 11.7969 49.9844 11.6406 50 11.3438V9.98438C49.9844 9.67188 49.8359 9.51562 49.5547 9.51562H43.5547C43.1172 9.51562 42.7422 9.36719 42.4297 9.07031C42.1328 8.75781 41.9844 8.38281 41.9844 7.94531C41.9844 7.50781 42.1328 7.13281 42.4297 6.82031C42.7422 6.52344 43.1172 6.375 43.5547 6.375H51.5703C52.0078 6.375 52.3828 6.52344 52.6953 6.82031C52.9766 7.11719 53.125 7.47656 53.1406 7.89844V7.94531V13.4297C53.125 13.8516 52.9766 14.2031 52.6953 14.4844C52.3984 14.7812 52.0391 14.9375 51.6172 14.9531H41.6328C40.5391 14.8906 39.6328 14.4766 38.9141 13.7109C38.2109 12.9297 37.7031 12.0469 37.3906 11.0625C37.0938 10.0781 36.9453 9.07031 36.9453 8.03906C36.9453 7.00781 37.1016 6 37.4141 5.01562C37.7266 4.03125 38.2344 3.15625 38.9375 2.39062C39.6406 1.60937 40.5391 1.1875 41.6328 1.125ZM68.6328 1.125C69.4297 1.14062 70.1406 1.39063 70.7656 1.875C71.3906 2.35938 71.8906 2.9375 72.2656 3.60938C72.6562 4.28125 72.9453 4.99219 73.1328 5.74219C73.3203 6.49219 73.4141 7.25781 73.4141 8.03906C73.4141 9.07031 73.25 10.0859 72.9219 11.0859C72.6094 12.0703 72.0859 12.9453 71.3516 13.7109C70.6328 14.4766 69.7266 14.8906 68.6328 14.9531H60.4531C59.3594 14.9062 58.4453 14.5 57.7109 13.7344C56.9766 12.9688 56.4531 12.0859 56.1406 11.0859C55.8438 10.0859 55.6953 9.07031 55.6953 8.03906C55.6953 7.00781 55.8516 6 56.1641 5.01562C56.4766 4.01562 56.9922 3.13281 57.7109 2.36719C58.4453 1.58594 59.3594 1.17188 60.4531 1.125H60.8984H68.1875H68.6328ZM67.8359 11.8125C68.4297 11.7812 68.9219 11.5625 69.3125 11.1562C69.7188 10.7344 70.0078 10.25 70.1797 9.70312C70.3516 9.15625 70.4375 8.60156 70.4375 8.03906C70.4375 7.47656 70.3438 6.92969 70.1562 6.39844C69.9844 5.85156 69.7031 5.36719 69.3125 4.94531C68.9219 4.52344 68.4297 4.29688 67.8359 4.26562H61.1797C60.5859 4.29688 60.0938 4.52344 59.7031 4.94531C59.3125 5.36719 59.0234 5.85156 58.8359 6.39844C58.6641 6.92969 58.5781 7.47656 58.5781 8.03906C58.5781 8.60156 58.6641 9.15625 58.8359 9.70312C59.0078 10.25 59.2891 10.7344 59.6797 11.1562C60.0859 11.5625 60.5859 11.7812 61.1797 11.8125H67.8359Z" fill="#E5B349"/>
</svg>
